<svg width="1920" height="856" viewBox="0 0 1920 856" fill="none" xmlns="http://www.w3.org/2000/svg">
<path d="M2101.48 753.012C2156.06 779.07 2284.66 877.716 2412 851.657L2387.97 40.5699C2260.63 90.0804 2170.39 91.125 2115.81 41.6144C2062.65 -5.33521 1971.7 -5.33521 1842.95 41.6144C1715.61 88.5641 1624.65 88.5641 1570.08 41.6144C1512.53 -10.457 1421.57 -10.457 1297.21 41.6144C1169.87 93.6859 1078.92 93.6859 1024.34 41.6144C972.452 -5.33521 881.496 -5.33521 751.473 41.6144C624.135 88.5641 533.179 88.5641 478.605 41.6144C419.566 -13.0178 328.61 -13.0178 205.737 41.6144C78.3982 96.2468 -12.5581 96.2468 -67.1318 41.6144C-122.132 -13.8715 -213.088 -13.8715 -340 41.6144V714.412C-213.088 685.209 -158.416 666.828 -103.416 696.031C-48.8418 724.785 50.7588 743.166 178.097 714.412C300.97 685.658 361.898 685.658 420.937 714.412C475.511 739.122 577.386 739.122 704.725 714.412C834.747 689.702 912.737 708.083 964.627 732.793C1019.2 760.199 1169.87 760.199 1297.21 732.793C1421.57 705.387 1486 688.365 1578.5 702.6C1764.5 731.223 1821.66 777.723 1949 753.012C2077.75 728.302 2048.32 728.302 2101.48 753.012Z" fill="#BB9457"/>
</svg>
