<svg width="1920" height="975" viewBox="0 0 1920 975" fill="none" xmlns="http://www.w3.org/2000/svg">
<path d="M143.002 194.582C70.9302 159.845 3.57147 -30.522 -68.5 4.21496L-75 1036.95C-2.92858 1002.21 68.5798 1002.21 140.651 1036.95C212.723 1071.68 284.794 1071.68 356.865 1036.95C428.937 1002.21 501.008 1002.21 573.08 1036.95C645.151 1071.68 717.223 1071.68 789.294 1036.95C861.365 1002.21 933.437 1002.21 1005.51 1036.95C1077.58 1071.68 1149.65 1071.68 1221.72 1036.95C1293.79 1002.21 1365.87 1002.21 1437.94 1036.95C1510.01 1071.68 1582.08 1071.68 1654.15 1036.95C1726.22 1002.21 1798.29 1002.21 1870.37 1036.95C1942.44 1071.68 2013.95 1071.68 2086.02 1036.95C2086.02 1036.95 2166.52 1104.3 2038.52 801.513C1910.52 498.725 1947.72 310.519 1870.37 227.686C1793.01 144.852 1726.22 192.949 1654.15 227.686C1582.08 262.422 1510.01 262.422 1437.94 227.686C1365.87 192.949 1293.79 192.949 1221.72 227.686C1149.65 262.422 1077.58 262.422 1005.51 227.686C933.437 192.949 861.365 192.949 789.294 227.686C717.223 262.422 645.151 262.422 573.08 227.686C501.008 192.949 428.937 192.949 356.865 227.686C284.794 262.422 215.073 229.319 143.002 194.582Z" fill="#432818"/>
</svg>
