<svg width="1920" height="954" viewBox="0 0 1920 954" fill="none" xmlns="http://www.w3.org/2000/svg">
<path d="M103.65 21.3837C31.5787 -7.12791 -39.9291 -7.12791 -112 21.3837L-86.5 941.5C10.5 1018.5 55.4291 710.988 127.5 739.5C199.571 768.012 247.791 714.128 319.862 685.616C391.933 657.105 464.004 657.105 536.075 685.616C608.146 714.128 680.216 714.128 752.287 685.616C824.358 657.105 896.429 657.105 968.5 685.616C1040.57 714.128 1112.64 714.128 1184.71 685.616C1256.78 657.105 1328.85 657.105 1400.93 685.616C1473 714.128 1545.07 714.128 1617.14 685.616C1688.23 657.493 1721.9 657.495 1834.78 657.5L1839.5 657.5C1940 657.5 2028.5 562.5 2077 362L2049 21.5278C1976.93 50.0395 1905.42 49.8954 1833.35 21.3837C1761.28 -7.12791 1689.21 -7.12791 1617.14 21.3837C1545.07 49.8954 1473 49.8954 1400.93 21.3837C1328.85 -7.12791 1256.78 -7.12791 1184.71 21.3837C1112.64 49.8954 1040.57 49.8954 968.5 21.3837C896.429 -7.12791 824.358 -7.12791 752.287 21.3837C680.216 49.8954 608.146 49.8954 536.075 21.3837C464.004 -7.12791 391.933 -7.12791 319.862 21.3837C247.791 49.8954 175.72 49.8954 103.65 21.3837Z" fill="#432818"/>
</svg>
