<svg width="1920" height="681" viewBox="0 0 1920 681" fill="none" xmlns="http://www.w3.org/2000/svg">
<path d="M160.051 -449.3C119.795 -470.731 -10.0693 -555.431 -104 -534L-104 680.5C-97.569 458 134 516 125.5 330C117 144 299.966 156.655 350.76 135.775C444.691 97.1622 511.784 97.1622 552.04 135.775C594.492 178.6 661.585 178.6 753.32 135.775C847.251 92.9499 914.344 92.9499 954.6 135.775C992.876 174.388 1059.97 174.388 1155.88 135.775C1249.81 97.1622 1316.9 97.1622 1357.16 135.775C1400.71 180.706 1467.8 180.706 1558.44 135.775C1652.37 90.8438 1769 162 1786.5 216C1863.36 453.165 1891 458 1961 491V-417.554C1867.38 -393.536 1827.06 -378.419 1786.48 -402.437C1746.23 -426.085 1672.76 -441.202 1578.83 -417.554C1488.19 -393.906 1443.25 -393.906 1399.7 -417.554C1359.44 -437.876 1284.29 -437.876 1190.36 -417.554C1094.45 -397.231 1036.92 -412.348 998.648 -432.671C958.392 -455.211 847.251 -455.211 753.32 -432.671C661.585 -410.131 614.06 -396.132 545.827 -407.839C408.625 -431.379 366.46 -469.622 272.53 -449.3C177.558 -428.977 199.266 -428.977 160.051 -449.3Z" fill="#BB9457"/>
</svg>
