<svg width="1920" height="1119" viewBox="0 0 1920 1119" fill="none" xmlns="http://www.w3.org/2000/svg">
<path d="M2011.48 1016.02C2066.06 1042.02 2194.66 1140.43 2322 1114.43L2297.97 305.241C2170.63 354.636 2014.07 54.1608 1959.5 4.76587C1906.34 -42.0741 1891.75 270.636 1763 317.476C1635.66 364.315 1543.5 373.266 1479.5 331.266C1415.5 289.266 1331.57 279.316 1207.21 331.266C1079.87 383.216 1027.5 341.375 934.341 306.283C852 275.266 786 278.766 655.5 306.283C528.161 353.123 464 280.77 374.861 299.958C176 342.766 126.5 288.766 68 263.766C-123.051 182.12 -26 70.7659 -139.5 212.266C-194.5 156.91 -303.088 250.927 -430 306.283V977.509C-303.088 948.374 -248.416 930.036 -193.416 959.171C-138.842 987.857 -39.2412 1006.2 88.0972 977.509C210.97 948.822 271.898 948.822 330.937 977.509C385.511 1002.16 487.386 1002.16 614.725 977.509C744.747 952.856 822.737 971.194 874.627 995.847C929.2 1023.19 1079.87 1023.19 1207.21 995.847C1331.57 968.505 1381.81 968.505 1439.36 995.847C1493.93 1020.5 1625.61 1087.74 1752.95 1063.09C1881.7 1038.43 1958.32 991.366 2011.48 1016.02Z" fill="#FFE6A7"/>
</svg>
