<svg width="1920" height="1739" viewBox="0 0 1920 1739" fill="none" xmlns="http://www.w3.org/2000/svg">
<path d="M1398.25 1002.23C1455.54 1026.88 1786.33 1026.49 1920 1001.84C1920 816.84 1922.5 95.5198 1922.5 13.839C1922.5 -69.8259 1864.47 250.157 1737.98 323.859C1614.64 395.726 1507.57 379.649 1440.39 337.649C1373.21 295.65 1285.11 285.7 1154.57 337.649C1020.9 389.599 965.929 347.759 868.142 312.667C781.708 281.65 712.429 285.15 575.444 312.667C441.778 359.507 374.428 287.153 280.859 306.342C72.1161 349.149 59.4703 304.278 0 275.339V983.839C118.5 1045.84 178.527 973.542 240.5 1002.23C297.786 1026.88 398.976 1008.54 532.643 983.89C669.126 959.238 750.991 977.576 805.459 1002.23C862.745 1029.57 1020.9 1029.57 1154.57 1002.23C1285.11 974.887 1337.84 974.887 1398.25 1002.23Z" fill="#FFE6A7"/>
<path d="M1727 1635.35C1827 1669.84 1831.02 1760.4 1920 1734.34L1920 901.839C1806.5 930.839 1826 943.339 1766.5 923.953C1698.62 901.839 1642 898.339 1546 914.839C1433.5 934.175 1395.5 927.339 1320.5 911.339C1245.5 895.339 1195 878.427 1099.5 916.339C1000 955.839 873 971.339 813 923.953C755.5 878.542 611.355 877.004 520.5 923.953C431.52 978.586 299.134 978.586 261 923.953C222.568 868.467 88.6816 868.467 0 923.953L0 1596.75C88.6816 1567.55 105 1566.84 165.317 1578.37C217.5 1588.35 273.048 1625.5 362.028 1596.75C448.5 1568.81 479.5 1576.38 531.716 1596.75C605 1625.34 641.037 1621.46 730.017 1596.75C820.872 1572.04 875.368 1590.42 911.627 1615.13C949.761 1642.54 1055.04 1642.54 1144.02 1615.13C1230.92 1587.73 1275.94 1570.7 1340.58 1584.94C1470.55 1613.56 1510.49 1660.06 1599.47 1635.35C1689.44 1610.64 1699 1625.69 1727 1635.35Z" fill="#BB9457"/>
</svg>
