<svg width="802" height="213" viewBox="0 0 802 213" fill="none" xmlns="http://www.w3.org/2000/svg">
<mask id="path-1-outside-1_499_266" maskUnits="userSpaceOnUse" x="-0.999023" y="0" width="803" height="213" fill="black">
<rect fill="white" x="-0.999023" width="803" height="213"/>
<path d="M769.41 40.9796C771.099 36.2687 775.363 33.121 782.2 31.5365C789.038 29.952 792.839 30.8653 793.605 34.2764C794.044 36.2346 793.042 40.2213 790.599 46.2365C788.156 52.2518 785.891 59.7874 783.804 68.8436C777.411 96.3079 774.152 110.487 774.025 111.38C772.101 123.787 772.55 136.276 775.37 148.846C775.796 150.742 776.805 153.199 778.398 156.219C779.977 159.176 780.866 161.096 781.064 161.981C781.759 165.076 781.054 167.764 778.95 170.046C776.847 172.328 773.495 174.001 768.895 175.067C764.358 176.119 760.824 176.107 758.294 175.032C755.75 173.894 754.081 171.556 753.287 168.019C753.032 166.882 753.133 164.566 753.592 161.07C754.112 157.561 754.44 154.361 754.577 151.472C754.761 148.506 754.052 143.453 752.451 136.315C750.849 129.177 747.343 122.148 741.932 115.229C741.117 114.221 735.195 107.354 724.165 94.6256C713.183 81.82 706.476 74.3699 704.044 72.2753C696.291 65.699 692.216 61.5265 691.819 59.7578C691.096 56.5362 694.775 53.9891 702.855 52.1165C710.998 50.2295 716.75 51.0897 720.109 54.697C720.805 55.4661 721.902 57.4382 723.399 60.6132C724.882 63.7251 730.322 71.0699 739.721 82.6476C749.12 94.2252 754.503 99.8556 755.871 99.5387C758.419 98.9481 762.068 88.4004 766.818 67.8955C768.176 61.9988 768.857 56.2922 768.862 50.7756C768.866 45.2589 769.049 41.9936 769.41 40.9796Z"/>
<path d="M694.522 139.863L694.707 133.16C694.915 125.583 694.09 118.462 692.232 111.798C686.72 91.8734 674.628 81.6461 655.955 81.1162L651.558 80.9914C643.847 80.7726 639.467 82.3335 638.418 85.6741C637.86 87.4083 637.349 96.7271 636.885 113.631L635.953 147.535L635.689 153.652L635.276 168.71L635.328 170.267L635.304 174.641L635.332 180.572C635.245 183.746 636.202 186.042 638.204 187.46C640.206 188.877 644.267 189.673 650.385 189.847L651.821 189.79C670.558 190.322 683.23 181.77 689.837 164.133C692.731 156.308 694.293 148.218 694.522 139.863ZM616.955 100.815C616.93 99.3884 616.967 96.8941 617.065 93.3321C617.164 89.7053 616.441 85.8607 614.894 81.7983C613.413 77.6729 612.68 75.3512 612.694 74.8331L612.737 73.2787C612.802 70.8825 614.853 69.3851 618.887 68.7866C626.765 67.5842 637.237 67.1684 650.301 67.5391L657.088 67.7317C676.717 68.2887 691.89 74.3257 702.608 85.8428C707.998 91.6346 712.009 98.8457 714.642 107.476C717.275 116.106 718.461 125.181 718.199 134.702L718.037 137.128C717.676 147.942 715.714 157.835 712.151 166.808C705.097 184.432 692.727 195.909 675.041 201.241C667.517 203.49 658.051 204.453 646.644 204.13L642.246 204.005C630.647 203.676 621.678 202.838 615.337 201.491C611.532 200.67 609.663 199.062 609.729 196.665C609.77 195.176 610.57 192.768 612.128 189.442C613.686 186.116 614.646 182.513 615.008 178.635C615.371 174.691 615.865 161.386 616.487 138.718L616.517 134.15L616.888 120.646L616.992 102.955L616.955 100.815Z"/>
<path d="M504.683 60.3977C513.027 60.0348 517.344 63.2841 517.633 70.1455L517.54 72.4841L517.087 77.6593C516.958 80.6479 517.008 84.8609 517.237 90.2983L518.079 110.3C519.262 138.393 521.223 155.428 523.964 161.404C529.162 172.721 538.101 178.137 550.779 177.65C557.913 177.34 563.597 175.18 567.832 171.17C572.127 167.092 575.111 162.196 576.785 156.481C579.3 148.006 579.887 127.845 578.546 95.9979C578.055 84.3465 577.464 76.3634 576.772 72.0486C576.141 67.6663 575.799 64.8603 575.747 63.6304C575.554 59.0345 578.737 56.594 585.298 56.3087L588.165 56.1841C591.222 56.0511 593.591 56.9857 595.27 58.9878C598.159 62.4289 599.665 65.6059 599.787 68.5187L599.918 71.6258C599.978 73.0499 599.363 75.8651 598.072 80.0715C596.845 84.2752 596.186 88.3245 596.095 92.2194C596.065 96.0468 596.388 105.987 597.063 122.04C597.099 122.882 597.134 123.723 597.17 124.565C597.788 139.258 597.684 149.671 596.858 155.803C595.981 162.261 593.683 168.295 589.962 173.904C582.458 185.124 568.451 191.181 547.94 192.073C521.315 193.23 505.563 181.335 500.684 156.386C499.464 150.148 498.594 140.848 498.073 128.484C497.55 116.056 496.986 106.451 496.381 99.6679C495.838 92.8175 494.681 87.3233 492.911 83.185C491.206 79.0441 490.313 76.035 490.234 74.1578C490.052 69.8209 491.555 66.124 494.745 63.0671C496.402 61.5035 499.714 60.6137 504.683 60.3977Z"/>
<path d="M491.699 70.5634C491.32 76.7063 489.285 79.66 485.594 79.4247C484.194 79.3354 481.588 78.6174 477.774 77.2706C473.961 75.9238 470.145 75.1286 466.327 74.8851C457.865 74.3454 452.67 77.26 450.744 83.6288C449.136 88.9793 447.509 104.975 445.864 131.616L444.403 150.608L443.804 160.308C443.569 164.123 443.614 167.014 443.939 168.983C444.329 170.955 444.915 173.362 445.697 176.203C446.544 179.048 446.917 181.279 446.817 182.896C446.617 186.129 445.096 188.531 442.252 190.103C439.471 191.678 435.663 192.312 430.828 192.003L428.441 191.851C424.942 191.628 421.878 190.556 419.25 188.636C416.625 186.651 415.389 184.43 415.541 181.972C415.693 179.515 416.216 177.244 417.111 175.159L417.995 173.268L418.974 171.383C419.63 170.061 420.428 168.002 421.367 165.206C422.37 162.414 423.107 157.202 423.578 149.572L423.842 146.862C424.017 145.056 424.161 143.247 424.272 141.437L424.805 135.92L426.445 114.018C427.579 95.6542 427.727 84.4654 426.889 80.4521C425.804 75.2545 421.985 72.4467 415.431 72.0287C411.614 71.7852 407.106 72.3741 401.907 73.7953C396.777 75.156 393.607 75.7977 392.398 75.7206C389.28 75.5218 387.925 72.1246 388.332 65.529C388.74 58.9335 391.739 55.3596 397.331 54.8074C405.17 54.0739 423.501 54.6263 452.325 56.4646L478.859 58.1568C483.758 58.4693 487.168 59.628 489.089 61.6331C491.073 63.6422 491.943 66.619 491.699 70.5634Z"/>
<path d="M350.886 192.89C343.544 193.256 335.396 192.672 326.442 191.139C317.484 189.52 311.156 187.684 307.456 185.631C303.753 183.492 300.765 180.414 298.491 176.397C296.292 172.289 295.102 168.347 294.92 164.569C294.733 160.706 295.428 157.702 297.005 155.558C298.577 153.328 300.361 152.164 302.356 152.064C304.351 151.965 308.18 154.226 313.843 158.849C319.586 163.469 325.231 166.888 330.778 169.107C336.405 171.322 343.289 172.227 351.429 171.821C359.569 171.415 366.081 168.767 370.965 163.876C375.849 158.985 378.085 152.29 377.675 143.791C377.265 135.291 372.265 127.838 362.676 121.431C360.031 119.67 351.35 115.499 336.632 108.917C321.91 102.25 312.111 96.4563 307.233 91.5359C302.352 86.5297 298.745 81.4168 296.413 76.1974C294.157 70.8881 292.848 64.4988 292.488 57.0296C291.833 43.4648 296.597 31.9534 306.78 22.4954C315.883 13.8658 329.932 9.07755 348.926 8.13052C360.578 7.54957 370.443 8.90798 378.522 12.2057C382.196 13.7437 385.33 16.5135 387.923 20.5151C390.592 24.4269 392.011 28.1427 392.181 31.6627C392.579 39.9046 390.264 44.1509 385.236 44.4016C383.8 44.4732 378.749 41.756 370.083 36.25C361.417 30.7439 352.855 28.2017 344.395 28.6235C336.016 29.0413 329.336 31.5259 324.356 36.0772C319.451 40.5387 317.179 46.504 317.54 53.9733C317.9 61.4425 321.613 67.927 328.679 73.4268C332.503 76.4203 342.053 81.1938 357.33 87.7473C372.602 94.2148 383.094 100.275 388.807 105.929C394.595 111.492 398.498 116.934 400.515 122.256C402.607 127.487 403.824 133.623 404.164 140.663C404.503 147.703 403.426 154.383 400.931 160.704C395.954 173.603 386.439 182.812 372.386 188.332C365.714 190.988 358.827 192.494 351.724 192.848C351.405 192.864 351.125 192.878 350.886 192.89Z"/>
<path d="M263.368 97.3949L263.172 96.4437C262.949 95.3657 263.564 92.8187 265.016 88.8026C266.531 84.7732 267.007 81.3952 266.445 78.6684C266.301 77.9709 264.814 75.9706 261.983 72.6676C259.202 69.288 257.478 65.9811 256.811 62.747C255.439 56.0887 258.153 52.0355 264.955 50.5875L267.576 50.0296C270.821 49.3388 273.488 49.797 275.578 51.4041C277.655 52.9478 279.014 55.2733 279.654 58.3805L280.116 59.6723L280.959 63.7625C282.306 70.294 281.616 77.6894 278.889 85.9486C276.162 94.2078 272.583 98.809 268.153 99.7522L267.591 99.8718C265.22 100.377 263.812 99.551 263.368 97.3949Z"/>
<path d="M189.788 134.278C185.425 128.309 184.035 121.521 185.617 113.914C187.212 106.244 191.722 100.69 199.149 97.2519C206.589 93.7507 215.268 93.065 225.186 95.1949C235.104 97.3248 242.083 100.115 246.122 103.565C250.175 106.951 251.792 110.61 250.975 114.54C249.855 119.928 247.579 122.254 244.148 121.517C242.963 121.263 240.083 119.287 235.509 115.589C230.934 111.892 226.246 109.527 221.442 108.496C216.639 107.464 212.791 107.797 209.897 109.493C207.065 111.203 205.287 113.801 204.562 117.287C203.837 120.773 205.499 124.375 209.548 128.092C210.91 129.378 215.501 132.682 223.322 138.003C231.218 143.275 236.59 147.839 239.437 151.695C243.849 157.741 245.244 164.663 243.623 172.46C242.001 180.257 237.425 186.128 229.892 190.073C222.436 193.968 213.655 194.83 203.55 192.66C186.396 188.976 176.466 183.301 173.76 175.634C172.898 173.198 172.638 171.155 172.981 169.507C174.128 163.992 176.385 161.597 179.754 162.32C180.752 162.534 184.045 165.03 189.633 169.806C195.297 174.532 200.593 177.424 205.521 178.482C210.511 179.554 214.665 179.32 217.982 177.781C221.3 176.242 223.341 173.634 224.105 169.957C224.883 166.217 223.318 162.305 219.411 158.221C217.803 156.552 213.144 153.101 205.435 147.87C197.739 142.575 192.524 138.045 189.788 134.278Z"/>
<path d="M102.126 106.212C103.069 108.96 103.898 119.008 104.612 136.357C105.327 153.705 106.396 164.165 107.819 167.736C110.809 175.26 115.744 178.876 122.623 178.584C131.031 178.226 136.979 174.666 140.465 167.903C143.949 161.076 145.363 149.7 144.707 133.776L144.682 128.525L144.47 123.378C144.326 119.883 143.925 116.333 143.266 112.73C142.671 109.124 142.365 107.127 142.349 106.738C142.224 103.696 143.187 101.515 145.238 100.196C147.287 98.8115 150.35 98.0328 154.426 97.8594C158.503 97.686 161.179 99.1285 162.453 102.187C163.303 104.226 164.109 114.502 164.872 133.016C165.631 151.464 167.169 164.79 169.485 172.992C170.524 176.514 171.045 178.34 171.051 178.469L171.127 180.314C171.196 181.997 170.273 183.593 168.357 185.101C166.504 186.606 163.795 187.435 160.228 187.587C156.66 187.738 153.189 187.108 149.812 185.695C146.433 184.218 144.362 183.495 143.597 183.528C142.897 183.558 139.6 184.865 133.709 187.45C127.817 190.035 122.546 191.427 117.896 191.624L115.412 191.73C110.316 191.947 105.65 190.978 101.413 188.824C97.174 186.605 93.8172 183.343 91.3428 179.039C87.6975 172.644 85.4376 158.831 84.5631 137.599C84.0539 125.235 83.3253 117.614 82.3772 114.736C82.3028 114.48 81.8408 113.332 80.9911 111.293C80.1414 109.254 79.6992 107.814 79.6646 106.973L79.5766 104.836C79.4299 101.276 82.669 99.3551 89.2937 99.0733L91.5869 98.9758C96.8739 98.7509 100.387 101.163 102.126 106.212Z"/>
<path d="M34.4936 204.292L32.2386 204.498C26.1572 205.053 20.7142 204.258 15.9096 202.114C11.1115 200.043 8.54749 197.141 8.21758 193.407L8.03322 191.321C7.83269 189.052 8.56756 186.844 10.2378 184.7C11.97 182.475 14.7151 181.192 18.4733 180.849L28.2784 180.729C32.3099 180.361 35.7974 178.124 38.7409 174.018C41.678 169.839 43.8476 164.77 45.2498 158.813C47.8457 147.654 48.115 130.435 46.058 107.156L45.7226 104.53C45.499 102.78 45.067 98.2806 44.4266 91.0334C43.7797 83.7129 42.5581 77.2936 40.7617 71.7753C38.9589 66.1838 36.7018 61.298 33.9904 57.1177C31.279 52.9375 29.8069 49.5296 29.574 46.8943C29.3411 44.2589 30.9319 41.6047 34.3465 38.9317C37.8293 36.2524 42.9873 34.601 49.8204 33.9774L52.0753 33.7717C56.1068 33.4038 59.7294 34.2539 62.943 36.3221C66.2184 38.3108 68.0243 41.2085 68.3607 45.0151C68.4836 46.406 68.3766 48.7034 68.0398 51.9073C67.7713 55.105 67.6332 60.9474 67.6255 69.4345C67.6796 77.8421 68.0333 85.7428 68.6867 93.1364L68.9474 98.4259C69.0344 100.189 69.1554 101.949 69.3107 103.706L69.5715 108.995L70.6806 125.055C72.9512 150.75 71.264 169.463 65.6192 181.195C62.4727 187.681 58.0855 192.989 52.4577 197.118C46.8364 201.321 40.8483 203.712 34.4936 204.292Z"/>
</mask>
<path d="M769.41 40.9796C771.099 36.2687 775.363 33.121 782.2 31.5365C789.038 29.952 792.839 30.8653 793.605 34.2764C794.044 36.2346 793.042 40.2213 790.599 46.2365C788.156 52.2518 785.891 59.7874 783.804 68.8436C777.411 96.3079 774.152 110.487 774.025 111.38C772.101 123.787 772.55 136.276 775.37 148.846C775.796 150.742 776.805 153.199 778.398 156.219C779.977 159.176 780.866 161.096 781.064 161.981C781.759 165.076 781.054 167.764 778.95 170.046C776.847 172.328 773.495 174.001 768.895 175.067C764.358 176.119 760.824 176.107 758.294 175.032C755.75 173.894 754.081 171.556 753.287 168.019C753.032 166.882 753.133 164.566 753.592 161.07C754.112 157.561 754.44 154.361 754.577 151.472C754.761 148.506 754.052 143.453 752.451 136.315C750.849 129.177 747.343 122.148 741.932 115.229C741.117 114.221 735.195 107.354 724.165 94.6256C713.183 81.82 706.476 74.3699 704.044 72.2753C696.291 65.699 692.216 61.5265 691.819 59.7578C691.096 56.5362 694.775 53.9891 702.855 52.1165C710.998 50.2295 716.75 51.0897 720.109 54.697C720.805 55.4661 721.902 57.4382 723.399 60.6132C724.882 63.7251 730.322 71.0699 739.721 82.6476C749.12 94.2252 754.503 99.8556 755.871 99.5387C758.419 98.9481 762.068 88.4004 766.818 67.8955C768.176 61.9988 768.857 56.2922 768.862 50.7756C768.866 45.2589 769.049 41.9936 769.41 40.9796Z" fill="#6F1D1B"/>
<path d="M694.522 139.863L694.707 133.16C694.915 125.583 694.09 118.462 692.232 111.798C686.72 91.8734 674.628 81.6461 655.955 81.1162L651.558 80.9914C643.847 80.7726 639.467 82.3335 638.418 85.6741C637.86 87.4083 637.349 96.7271 636.885 113.631L635.953 147.535L635.689 153.652L635.276 168.71L635.328 170.267L635.304 174.641L635.332 180.572C635.245 183.746 636.202 186.042 638.204 187.46C640.206 188.877 644.267 189.673 650.385 189.847L651.821 189.79C670.558 190.322 683.23 181.77 689.837 164.133C692.731 156.308 694.293 148.218 694.522 139.863ZM616.955 100.815C616.93 99.3884 616.967 96.8941 617.065 93.3321C617.164 89.7053 616.441 85.8607 614.894 81.7983C613.413 77.6729 612.68 75.3512 612.694 74.8331L612.737 73.2787C612.802 70.8825 614.853 69.3851 618.887 68.7866C626.765 67.5842 637.237 67.1684 650.301 67.5391L657.088 67.7317C676.717 68.2887 691.89 74.3257 702.608 85.8428C707.998 91.6346 712.009 98.8457 714.642 107.476C717.275 116.106 718.461 125.181 718.199 134.702L718.037 137.128C717.676 147.942 715.714 157.835 712.151 166.808C705.097 184.432 692.727 195.909 675.041 201.241C667.517 203.49 658.051 204.453 646.644 204.13L642.246 204.005C630.647 203.676 621.678 202.838 615.337 201.491C611.532 200.67 609.663 199.062 609.729 196.665C609.77 195.176 610.57 192.768 612.128 189.442C613.686 186.116 614.646 182.513 615.008 178.635C615.371 174.691 615.865 161.386 616.487 138.718L616.517 134.15L616.888 120.646L616.992 102.955L616.955 100.815Z" fill="#6F1D1B"/>
<path d="M504.683 60.3977C513.027 60.0348 517.344 63.2841 517.633 70.1455L517.54 72.4841L517.087 77.6593C516.958 80.6479 517.008 84.8609 517.237 90.2983L518.079 110.3C519.262 138.393 521.223 155.428 523.964 161.404C529.162 172.721 538.101 178.137 550.779 177.65C557.913 177.34 563.597 175.18 567.832 171.17C572.127 167.092 575.111 162.196 576.785 156.481C579.3 148.006 579.887 127.845 578.546 95.9979C578.055 84.3465 577.464 76.3634 576.772 72.0486C576.141 67.6663 575.799 64.8603 575.747 63.6304C575.554 59.0345 578.737 56.594 585.298 56.3087L588.165 56.1841C591.222 56.0511 593.591 56.9857 595.27 58.9878C598.159 62.4289 599.665 65.6059 599.787 68.5187L599.918 71.6258C599.978 73.0499 599.363 75.8651 598.072 80.0715C596.845 84.2752 596.186 88.3245 596.095 92.2194C596.065 96.0468 596.388 105.987 597.063 122.04C597.099 122.882 597.134 123.723 597.17 124.565C597.788 139.258 597.684 149.671 596.858 155.803C595.981 162.261 593.683 168.295 589.962 173.904C582.458 185.124 568.451 191.181 547.94 192.073C521.315 193.23 505.563 181.335 500.684 156.386C499.464 150.148 498.594 140.848 498.073 128.484C497.55 116.056 496.986 106.451 496.381 99.6679C495.838 92.8175 494.681 87.3233 492.911 83.185C491.206 79.0441 490.313 76.035 490.234 74.1578C490.052 69.8209 491.555 66.124 494.745 63.0671C496.402 61.5035 499.714 60.6137 504.683 60.3977Z" fill="#6F1D1B"/>
<path d="M491.699 70.5634C491.32 76.7063 489.285 79.66 485.594 79.4247C484.194 79.3354 481.588 78.6174 477.774 77.2706C473.961 75.9238 470.145 75.1286 466.327 74.8851C457.865 74.3454 452.67 77.26 450.744 83.6288C449.136 88.9793 447.509 104.975 445.864 131.616L444.403 150.608L443.804 160.308C443.569 164.123 443.614 167.014 443.939 168.983C444.329 170.955 444.915 173.362 445.697 176.203C446.544 179.048 446.917 181.279 446.817 182.896C446.617 186.129 445.096 188.531 442.252 190.103C439.471 191.678 435.663 192.312 430.828 192.003L428.441 191.851C424.942 191.628 421.878 190.556 419.25 188.636C416.625 186.651 415.389 184.43 415.541 181.972C415.693 179.515 416.216 177.244 417.111 175.159L417.995 173.268L418.974 171.383C419.63 170.061 420.428 168.002 421.367 165.206C422.37 162.414 423.107 157.202 423.578 149.572L423.842 146.862C424.017 145.056 424.161 143.247 424.272 141.437L424.805 135.92L426.445 114.018C427.579 95.6542 427.727 84.4654 426.889 80.4521C425.804 75.2545 421.985 72.4467 415.431 72.0287C411.614 71.7852 407.106 72.3741 401.907 73.7953C396.777 75.156 393.607 75.7977 392.398 75.7206C389.28 75.5218 387.925 72.1246 388.332 65.529C388.74 58.9335 391.739 55.3596 397.331 54.8074C405.17 54.0739 423.501 54.6263 452.325 56.4646L478.859 58.1568C483.758 58.4693 487.168 59.628 489.089 61.6331C491.073 63.6422 491.943 66.619 491.699 70.5634Z" fill="#6F1D1B"/>
<path d="M350.886 192.89C343.544 193.256 335.396 192.672 326.442 191.139C317.484 189.52 311.156 187.684 307.456 185.631C303.753 183.492 300.765 180.414 298.491 176.397C296.292 172.289 295.102 168.347 294.92 164.569C294.733 160.706 295.428 157.702 297.005 155.558C298.577 153.328 300.361 152.164 302.356 152.064C304.351 151.965 308.18 154.226 313.843 158.849C319.586 163.469 325.231 166.888 330.778 169.107C336.405 171.322 343.289 172.227 351.429 171.821C359.569 171.415 366.081 168.767 370.965 163.876C375.849 158.985 378.085 152.29 377.675 143.791C377.265 135.291 372.265 127.838 362.676 121.431C360.031 119.67 351.35 115.499 336.632 108.917C321.91 102.25 312.111 96.4563 307.233 91.5359C302.352 86.5297 298.745 81.4168 296.413 76.1974C294.157 70.8881 292.848 64.4988 292.488 57.0296C291.833 43.4648 296.597 31.9534 306.78 22.4954C315.883 13.8658 329.932 9.07755 348.926 8.13052C360.578 7.54957 370.443 8.90798 378.522 12.2057C382.196 13.7437 385.33 16.5135 387.923 20.5151C390.592 24.4269 392.011 28.1427 392.181 31.6627C392.579 39.9046 390.264 44.1509 385.236 44.4016C383.8 44.4732 378.749 41.756 370.083 36.25C361.417 30.7439 352.855 28.2017 344.395 28.6235C336.016 29.0413 329.336 31.5259 324.356 36.0772C319.451 40.5387 317.179 46.504 317.54 53.9733C317.9 61.4425 321.613 67.927 328.679 73.4268C332.503 76.4203 342.053 81.1938 357.33 87.7473C372.602 94.2148 383.094 100.275 388.807 105.929C394.595 111.492 398.498 116.934 400.515 122.256C402.607 127.487 403.824 133.623 404.164 140.663C404.503 147.703 403.426 154.383 400.931 160.704C395.954 173.603 386.439 182.812 372.386 188.332C365.714 190.988 358.827 192.494 351.724 192.848C351.405 192.864 351.125 192.878 350.886 192.89Z" fill="#6F1D1B"/>
<path d="M263.368 97.3949L263.172 96.4437C262.949 95.3657 263.564 92.8187 265.016 88.8026C266.531 84.7732 267.007 81.3952 266.445 78.6684C266.301 77.9709 264.814 75.9706 261.983 72.6676C259.202 69.288 257.478 65.9811 256.811 62.747C255.439 56.0887 258.153 52.0355 264.955 50.5875L267.576 50.0296C270.821 49.3388 273.488 49.797 275.578 51.4041C277.655 52.9478 279.014 55.2733 279.654 58.3805L280.116 59.6723L280.959 63.7625C282.306 70.294 281.616 77.6894 278.889 85.9486C276.162 94.2078 272.583 98.809 268.153 99.7522L267.591 99.8718C265.22 100.377 263.812 99.551 263.368 97.3949Z" fill="#6F1D1B"/>
<path d="M189.788 134.278C185.425 128.309 184.035 121.521 185.617 113.914C187.212 106.244 191.722 100.69 199.149 97.2519C206.589 93.7507 215.268 93.065 225.186 95.1949C235.104 97.3248 242.083 100.115 246.122 103.565C250.175 106.951 251.792 110.61 250.975 114.54C249.855 119.928 247.579 122.254 244.148 121.517C242.963 121.263 240.083 119.287 235.509 115.589C230.934 111.892 226.246 109.527 221.442 108.496C216.639 107.464 212.791 107.797 209.897 109.493C207.065 111.203 205.287 113.801 204.562 117.287C203.837 120.773 205.499 124.375 209.548 128.092C210.91 129.378 215.501 132.682 223.322 138.003C231.218 143.275 236.59 147.839 239.437 151.695C243.849 157.741 245.244 164.663 243.623 172.46C242.001 180.257 237.425 186.128 229.892 190.073C222.436 193.968 213.655 194.83 203.55 192.66C186.396 188.976 176.466 183.301 173.76 175.634C172.898 173.198 172.638 171.155 172.981 169.507C174.128 163.992 176.385 161.597 179.754 162.32C180.752 162.534 184.045 165.03 189.633 169.806C195.297 174.532 200.593 177.424 205.521 178.482C210.511 179.554 214.665 179.32 217.982 177.781C221.3 176.242 223.341 173.634 224.105 169.957C224.883 166.217 223.318 162.305 219.411 158.221C217.803 156.552 213.144 153.101 205.435 147.87C197.739 142.575 192.524 138.045 189.788 134.278Z" fill="#6F1D1B"/>
<path d="M102.126 106.212C103.069 108.96 103.898 119.008 104.612 136.357C105.327 153.705 106.396 164.165 107.819 167.736C110.809 175.26 115.744 178.876 122.623 178.584C131.031 178.226 136.979 174.666 140.465 167.903C143.949 161.076 145.363 149.7 144.707 133.776L144.682 128.525L144.47 123.378C144.326 119.883 143.925 116.333 143.266 112.73C142.671 109.124 142.365 107.127 142.349 106.738C142.224 103.696 143.187 101.515 145.238 100.196C147.287 98.8115 150.35 98.0328 154.426 97.8594C158.503 97.686 161.179 99.1285 162.453 102.187C163.303 104.226 164.109 114.502 164.872 133.016C165.631 151.464 167.169 164.79 169.485 172.992C170.524 176.514 171.045 178.34 171.051 178.469L171.127 180.314C171.196 181.997 170.273 183.593 168.357 185.101C166.504 186.606 163.795 187.435 160.228 187.587C156.66 187.738 153.189 187.108 149.812 185.695C146.433 184.218 144.362 183.495 143.597 183.528C142.897 183.558 139.6 184.865 133.709 187.45C127.817 190.035 122.546 191.427 117.896 191.624L115.412 191.73C110.316 191.947 105.65 190.978 101.413 188.824C97.174 186.605 93.8172 183.343 91.3428 179.039C87.6975 172.644 85.4376 158.831 84.5631 137.599C84.0539 125.235 83.3253 117.614 82.3772 114.736C82.3028 114.48 81.8408 113.332 80.9911 111.293C80.1414 109.254 79.6992 107.814 79.6646 106.973L79.5766 104.836C79.4299 101.276 82.669 99.3551 89.2937 99.0733L91.5869 98.9758C96.8739 98.7509 100.387 101.163 102.126 106.212Z" fill="#6F1D1B"/>
<path d="M34.4936 204.292L32.2386 204.498C26.1572 205.053 20.7142 204.258 15.9096 202.114C11.1115 200.043 8.54749 197.141 8.21758 193.407L8.03322 191.321C7.83269 189.052 8.56756 186.844 10.2378 184.7C11.97 182.475 14.7151 181.192 18.4733 180.849L28.2784 180.729C32.3099 180.361 35.7974 178.124 38.7409 174.018C41.678 169.839 43.8476 164.77 45.2498 158.813C47.8457 147.654 48.115 130.435 46.058 107.156L45.7226 104.53C45.499 102.78 45.067 98.2806 44.4266 91.0334C43.7797 83.7129 42.5581 77.2936 40.7617 71.7753C38.9589 66.1838 36.7018 61.298 33.9904 57.1177C31.279 52.9375 29.8069 49.5296 29.574 46.8943C29.3411 44.2589 30.9319 41.6047 34.3465 38.9317C37.8293 36.2524 42.9873 34.601 49.8204 33.9774L52.0753 33.7717C56.1068 33.4038 59.7294 34.2539 62.943 36.3221C66.2184 38.3108 68.0243 41.2085 68.3607 45.0151C68.4836 46.406 68.3766 48.7034 68.0398 51.9073C67.7713 55.105 67.6332 60.9474 67.6255 69.4345C67.6796 77.8421 68.0333 85.7428 68.6867 93.1364L68.9474 98.4259C69.0344 100.189 69.1554 101.949 69.3107 103.706L69.5715 108.995L70.6806 125.055C72.9512 150.75 71.264 169.463 65.6192 181.195C62.4727 187.681 58.0855 192.989 52.4577 197.118C46.8364 201.321 40.8483 203.712 34.4936 204.292Z" fill="#6F1D1B"/>
<path d="M769.41 40.9796C771.099 36.2687 775.363 33.121 782.2 31.5365C789.038 29.952 792.839 30.8653 793.605 34.2764C794.044 36.2346 793.042 40.2213 790.599 46.2365C788.156 52.2518 785.891 59.7874 783.804 68.8436C777.411 96.3079 774.152 110.487 774.025 111.38C772.101 123.787 772.55 136.276 775.37 148.846C775.796 150.742 776.805 153.199 778.398 156.219C779.977 159.176 780.866 161.096 781.064 161.981C781.759 165.076 781.054 167.764 778.95 170.046C776.847 172.328 773.495 174.001 768.895 175.067C764.358 176.119 760.824 176.107 758.294 175.032C755.75 173.894 754.081 171.556 753.287 168.019C753.032 166.882 753.133 164.566 753.592 161.07C754.112 157.561 754.44 154.361 754.577 151.472C754.761 148.506 754.052 143.453 752.451 136.315C750.849 129.177 747.343 122.148 741.932 115.229C741.117 114.221 735.195 107.354 724.165 94.6256C713.183 81.82 706.476 74.3699 704.044 72.2753C696.291 65.699 692.216 61.5265 691.819 59.7578C691.096 56.5362 694.775 53.9891 702.855 52.1165C710.998 50.2295 716.75 51.0897 720.109 54.697C720.805 55.4661 721.902 57.4382 723.399 60.6132C724.882 63.7251 730.322 71.0699 739.721 82.6476C749.12 94.2252 754.503 99.8556 755.871 99.5387C758.419 98.9481 762.068 88.4004 766.818 67.8955C768.176 61.9988 768.857 56.2922 768.862 50.7756C768.866 45.2589 769.049 41.9936 769.41 40.9796Z" stroke="#6F1D1B" stroke-width="16" mask="url(#path-1-outside-1_499_266)"/>
<path d="M694.522 139.863L694.707 133.16C694.915 125.583 694.09 118.462 692.232 111.798C686.72 91.8734 674.628 81.6461 655.955 81.1162L651.558 80.9914C643.847 80.7726 639.467 82.3335 638.418 85.6741C637.86 87.4083 637.349 96.7271 636.885 113.631L635.953 147.535L635.689 153.652L635.276 168.71L635.328 170.267L635.304 174.641L635.332 180.572C635.245 183.746 636.202 186.042 638.204 187.46C640.206 188.877 644.267 189.673 650.385 189.847L651.821 189.79C670.558 190.322 683.23 181.77 689.837 164.133C692.731 156.308 694.293 148.218 694.522 139.863ZM616.955 100.815C616.93 99.3884 616.967 96.8941 617.065 93.3321C617.164 89.7053 616.441 85.8607 614.894 81.7983C613.413 77.6729 612.68 75.3512 612.694 74.8331L612.737 73.2787C612.802 70.8825 614.853 69.3851 618.887 68.7866C626.765 67.5842 637.237 67.1684 650.301 67.5391L657.088 67.7317C676.717 68.2887 691.89 74.3257 702.608 85.8428C707.998 91.6346 712.009 98.8457 714.642 107.476C717.275 116.106 718.461 125.181 718.199 134.702L718.037 137.128C717.676 147.942 715.714 157.835 712.151 166.808C705.097 184.432 692.727 195.909 675.041 201.241C667.517 203.49 658.051 204.453 646.644 204.13L642.246 204.005C630.647 203.676 621.678 202.838 615.337 201.491C611.532 200.67 609.663 199.062 609.729 196.665C609.77 195.176 610.57 192.768 612.128 189.442C613.686 186.116 614.646 182.513 615.008 178.635C615.371 174.691 615.865 161.386 616.487 138.718L616.517 134.15L616.888 120.646L616.992 102.955L616.955 100.815Z" stroke="#6F1D1B" stroke-width="16" mask="url(#path-1-outside-1_499_266)"/>
<path d="M504.683 60.3977C513.027 60.0348 517.344 63.2841 517.633 70.1455L517.54 72.4841L517.087 77.6593C516.958 80.6479 517.008 84.8609 517.237 90.2983L518.079 110.3C519.262 138.393 521.223 155.428 523.964 161.404C529.162 172.721 538.101 178.137 550.779 177.65C557.913 177.34 563.597 175.18 567.832 171.17C572.127 167.092 575.111 162.196 576.785 156.481C579.3 148.006 579.887 127.845 578.546 95.9979C578.055 84.3465 577.464 76.3634 576.772 72.0486C576.141 67.6663 575.799 64.8603 575.747 63.6304C575.554 59.0345 578.737 56.594 585.298 56.3087L588.165 56.1841C591.222 56.0511 593.591 56.9857 595.27 58.9878C598.159 62.4289 599.665 65.6059 599.787 68.5187L599.918 71.6258C599.978 73.0499 599.363 75.8651 598.072 80.0715C596.845 84.2752 596.186 88.3245 596.095 92.2194C596.065 96.0468 596.388 105.987 597.063 122.04C597.099 122.882 597.134 123.723 597.17 124.565C597.788 139.258 597.684 149.671 596.858 155.803C595.981 162.261 593.683 168.295 589.962 173.904C582.458 185.124 568.451 191.181 547.94 192.073C521.315 193.23 505.563 181.335 500.684 156.386C499.464 150.148 498.594 140.848 498.073 128.484C497.55 116.056 496.986 106.451 496.381 99.6679C495.838 92.8175 494.681 87.3233 492.911 83.185C491.206 79.0441 490.313 76.035 490.234 74.1578C490.052 69.8209 491.555 66.124 494.745 63.0671C496.402 61.5035 499.714 60.6137 504.683 60.3977Z" stroke="#6F1D1B" stroke-width="16" mask="url(#path-1-outside-1_499_266)"/>
<path d="M491.699 70.5634C491.32 76.7063 489.285 79.66 485.594 79.4247C484.194 79.3354 481.588 78.6174 477.774 77.2706C473.961 75.9238 470.145 75.1286 466.327 74.8851C457.865 74.3454 452.67 77.26 450.744 83.6288C449.136 88.9793 447.509 104.975 445.864 131.616L444.403 150.608L443.804 160.308C443.569 164.123 443.614 167.014 443.939 168.983C444.329 170.955 444.915 173.362 445.697 176.203C446.544 179.048 446.917 181.279 446.817 182.896C446.617 186.129 445.096 188.531 442.252 190.103C439.471 191.678 435.663 192.312 430.828 192.003L428.441 191.851C424.942 191.628 421.878 190.556 419.25 188.636C416.625 186.651 415.389 184.43 415.541 181.972C415.693 179.515 416.216 177.244 417.111 175.159L417.995 173.268L418.974 171.383C419.63 170.061 420.428 168.002 421.367 165.206C422.37 162.414 423.107 157.202 423.578 149.572L423.842 146.862C424.017 145.056 424.161 143.247 424.272 141.437L424.805 135.92L426.445 114.018C427.579 95.6542 427.727 84.4654 426.889 80.4521C425.804 75.2545 421.985 72.4467 415.431 72.0287C411.614 71.7852 407.106 72.3741 401.907 73.7953C396.777 75.156 393.607 75.7977 392.398 75.7206C389.28 75.5218 387.925 72.1246 388.332 65.529C388.74 58.9335 391.739 55.3596 397.331 54.8074C405.17 54.0739 423.501 54.6263 452.325 56.4646L478.859 58.1568C483.758 58.4693 487.168 59.628 489.089 61.6331C491.073 63.6422 491.943 66.619 491.699 70.5634Z" stroke="#6F1D1B" stroke-width="16" mask="url(#path-1-outside-1_499_266)"/>
<path d="M350.886 192.89C343.544 193.256 335.396 192.672 326.442 191.139C317.484 189.52 311.156 187.684 307.456 185.631C303.753 183.492 300.765 180.414 298.491 176.397C296.292 172.289 295.102 168.347 294.92 164.569C294.733 160.706 295.428 157.702 297.005 155.558C298.577 153.328 300.361 152.164 302.356 152.064C304.351 151.965 308.18 154.226 313.843 158.849C319.586 163.469 325.231 166.888 330.778 169.107C336.405 171.322 343.289 172.227 351.429 171.821C359.569 171.415 366.081 168.767 370.965 163.876C375.849 158.985 378.085 152.29 377.675 143.791C377.265 135.291 372.265 127.838 362.676 121.431C360.031 119.67 351.35 115.499 336.632 108.917C321.91 102.25 312.111 96.4563 307.233 91.5359C302.352 86.5297 298.745 81.4168 296.413 76.1974C294.157 70.8881 292.848 64.4988 292.488 57.0296C291.833 43.4648 296.597 31.9534 306.78 22.4954C315.883 13.8658 329.932 9.07755 348.926 8.13052C360.578 7.54957 370.443 8.90798 378.522 12.2057C382.196 13.7437 385.33 16.5135 387.923 20.5151C390.592 24.4269 392.011 28.1427 392.181 31.6627C392.579 39.9046 390.264 44.1509 385.236 44.4016C383.8 44.4732 378.749 41.756 370.083 36.25C361.417 30.7439 352.855 28.2017 344.395 28.6235C336.016 29.0413 329.336 31.5259 324.356 36.0772C319.451 40.5387 317.179 46.504 317.54 53.9733C317.9 61.4425 321.613 67.927 328.679 73.4268C332.503 76.4203 342.053 81.1938 357.33 87.7473C372.602 94.2148 383.094 100.275 388.807 105.929C394.595 111.492 398.498 116.934 400.515 122.256C402.607 127.487 403.824 133.623 404.164 140.663C404.503 147.703 403.426 154.383 400.931 160.704C395.954 173.603 386.439 182.812 372.386 188.332C365.714 190.988 358.827 192.494 351.724 192.848C351.405 192.864 351.125 192.878 350.886 192.89Z" stroke="#6F1D1B" stroke-width="16" mask="url(#path-1-outside-1_499_266)"/>
<path d="M263.368 97.3949L263.172 96.4437C262.949 95.3657 263.564 92.8187 265.016 88.8026C266.531 84.7732 267.007 81.3952 266.445 78.6684C266.301 77.9709 264.814 75.9706 261.983 72.6676C259.202 69.288 257.478 65.9811 256.811 62.747C255.439 56.0887 258.153 52.0355 264.955 50.5875L267.576 50.0296C270.821 49.3388 273.488 49.797 275.578 51.4041C277.655 52.9478 279.014 55.2733 279.654 58.3805L280.116 59.6723L280.959 63.7625C282.306 70.294 281.616 77.6894 278.889 85.9486C276.162 94.2078 272.583 98.809 268.153 99.7522L267.591 99.8718C265.22 100.377 263.812 99.551 263.368 97.3949Z" stroke="#6F1D1B" stroke-width="16" mask="url(#path-1-outside-1_499_266)"/>
<path d="M189.788 134.278C185.425 128.309 184.035 121.521 185.617 113.914C187.212 106.244 191.722 100.69 199.149 97.2519C206.589 93.7507 215.268 93.065 225.186 95.1949C235.104 97.3248 242.083 100.115 246.122 103.565C250.175 106.951 251.792 110.61 250.975 114.54C249.855 119.928 247.579 122.254 244.148 121.517C242.963 121.263 240.083 119.287 235.509 115.589C230.934 111.892 226.246 109.527 221.442 108.496C216.639 107.464 212.791 107.797 209.897 109.493C207.065 111.203 205.287 113.801 204.562 117.287C203.837 120.773 205.499 124.375 209.548 128.092C210.91 129.378 215.501 132.682 223.322 138.003C231.218 143.275 236.59 147.839 239.437 151.695C243.849 157.741 245.244 164.663 243.623 172.46C242.001 180.257 237.425 186.128 229.892 190.073C222.436 193.968 213.655 194.83 203.55 192.66C186.396 188.976 176.466 183.301 173.76 175.634C172.898 173.198 172.638 171.155 172.981 169.507C174.128 163.992 176.385 161.597 179.754 162.32C180.752 162.534 184.045 165.03 189.633 169.806C195.297 174.532 200.593 177.424 205.521 178.482C210.511 179.554 214.665 179.32 217.982 177.781C221.3 176.242 223.341 173.634 224.105 169.957C224.883 166.217 223.318 162.305 219.411 158.221C217.803 156.552 213.144 153.101 205.435 147.87C197.739 142.575 192.524 138.045 189.788 134.278Z" stroke="#6F1D1B" stroke-width="16" mask="url(#path-1-outside-1_499_266)"/>
<path d="M102.126 106.212C103.069 108.96 103.898 119.008 104.612 136.357C105.327 153.705 106.396 164.165 107.819 167.736C110.809 175.26 115.744 178.876 122.623 178.584C131.031 178.226 136.979 174.666 140.465 167.903C143.949 161.076 145.363 149.7 144.707 133.776L144.682 128.525L144.47 123.378C144.326 119.883 143.925 116.333 143.266 112.73C142.671 109.124 142.365 107.127 142.349 106.738C142.224 103.696 143.187 101.515 145.238 100.196C147.287 98.8115 150.35 98.0328 154.426 97.8594C158.503 97.686 161.179 99.1285 162.453 102.187C163.303 104.226 164.109 114.502 164.872 133.016C165.631 151.464 167.169 164.79 169.485 172.992C170.524 176.514 171.045 178.34 171.051 178.469L171.127 180.314C171.196 181.997 170.273 183.593 168.357 185.101C166.504 186.606 163.795 187.435 160.228 187.587C156.66 187.738 153.189 187.108 149.812 185.695C146.433 184.218 144.362 183.495 143.597 183.528C142.897 183.558 139.6 184.865 133.709 187.45C127.817 190.035 122.546 191.427 117.896 191.624L115.412 191.73C110.316 191.947 105.65 190.978 101.413 188.824C97.174 186.605 93.8172 183.343 91.3428 179.039C87.6975 172.644 85.4376 158.831 84.5631 137.599C84.0539 125.235 83.3253 117.614 82.3772 114.736C82.3028 114.48 81.8408 113.332 80.9911 111.293C80.1414 109.254 79.6992 107.814 79.6646 106.973L79.5766 104.836C79.4299 101.276 82.669 99.3551 89.2937 99.0733L91.5869 98.9758C96.8739 98.7509 100.387 101.163 102.126 106.212Z" stroke="#6F1D1B" stroke-width="16" mask="url(#path-1-outside-1_499_266)"/>
<path d="M34.4936 204.292L32.2386 204.498C26.1572 205.053 20.7142 204.258 15.9096 202.114C11.1115 200.043 8.54749 197.141 8.21758 193.407L8.03322 191.321C7.83269 189.052 8.56756 186.844 10.2378 184.7C11.97 182.475 14.7151 181.192 18.4733 180.849L28.2784 180.729C32.3099 180.361 35.7974 178.124 38.7409 174.018C41.678 169.839 43.8476 164.77 45.2498 158.813C47.8457 147.654 48.115 130.435 46.058 107.156L45.7226 104.53C45.499 102.78 45.067 98.2806 44.4266 91.0334C43.7797 83.7129 42.5581 77.2936 40.7617 71.7753C38.9589 66.1838 36.7018 61.298 33.9904 57.1177C31.279 52.9375 29.8069 49.5296 29.574 46.8943C29.3411 44.2589 30.9319 41.6047 34.3465 38.9317C37.8293 36.2524 42.9873 34.601 49.8204 33.9774L52.0753 33.7717C56.1068 33.4038 59.7294 34.2539 62.943 36.3221C66.2184 38.3108 68.0243 41.2085 68.3607 45.0151C68.4836 46.406 68.3766 48.7034 68.0398 51.9073C67.7713 55.105 67.6332 60.9474 67.6255 69.4345C67.6796 77.8421 68.0333 85.7428 68.6867 93.1364L68.9474 98.4259C69.0344 100.189 69.1554 101.949 69.3107 103.706L69.5715 108.995L70.6806 125.055C72.9512 150.75 71.264 169.463 65.6192 181.195C62.4727 187.681 58.0855 192.989 52.4577 197.118C46.8364 201.321 40.8483 203.712 34.4936 204.292Z" stroke="#6F1D1B" stroke-width="16" mask="url(#path-1-outside-1_499_266)"/>
<mask id="mask0_499_266" style="mask-type:alpha" maskUnits="userSpaceOnUse" x="8" y="8" width="786" height="197">
<path d="M769.41 40.9796C771.099 36.2687 775.363 33.121 782.2 31.5365C789.038 29.952 792.839 30.8653 793.605 34.2764C794.044 36.2346 793.042 40.2213 790.599 46.2365C788.156 52.2518 785.891 59.7874 783.804 68.8436C777.411 96.3079 774.152 110.487 774.025 111.38C772.101 123.787 772.55 136.276 775.37 148.846C775.796 150.742 776.805 153.199 778.398 156.219C779.977 159.176 780.866 161.096 781.064 161.981C781.759 165.076 781.054 167.764 778.95 170.046C776.847 172.328 773.495 174.001 768.895 175.067C764.358 176.119 760.824 176.107 758.294 175.032C755.75 173.894 754.081 171.556 753.287 168.019C753.032 166.882 753.133 164.566 753.592 161.07C754.112 157.561 754.44 154.361 754.577 151.472C754.761 148.506 754.052 143.453 752.451 136.315C750.849 129.177 747.343 122.148 741.932 115.229C741.117 114.221 735.195 107.354 724.165 94.6256C713.183 81.82 706.476 74.3699 704.044 72.2753C696.291 65.699 692.216 61.5265 691.819 59.7578C691.096 56.5362 694.775 53.9891 702.855 52.1165C710.998 50.2295 716.75 51.0897 720.109 54.697C720.805 55.4661 721.902 57.4382 723.399 60.6132C724.882 63.7251 730.322 71.0699 739.721 82.6476C749.12 94.2252 754.503 99.8556 755.871 99.5387C758.419 98.9481 762.068 88.4004 766.818 67.8955C768.176 61.9988 768.857 56.2922 768.862 50.7756C768.866 45.2589 769.049 41.9936 769.41 40.9796Z" fill="black"/>
<path d="M694.522 139.863L694.707 133.16C694.915 125.583 694.09 118.462 692.232 111.798C686.72 91.8734 674.628 81.6461 655.955 81.1162L651.558 80.9914C643.847 80.7726 639.467 82.3335 638.418 85.6741C637.86 87.4083 637.349 96.7271 636.885 113.631L635.953 147.535L635.689 153.652L635.276 168.71L635.328 170.267L635.304 174.641L635.332 180.572C635.245 183.746 636.202 186.042 638.204 187.46C640.206 188.877 644.267 189.673 650.385 189.847L651.821 189.79C670.558 190.322 683.23 181.77 689.837 164.133C692.731 156.308 694.293 148.218 694.522 139.863ZM616.955 100.815C616.93 99.3884 616.967 96.8941 617.065 93.3321C617.164 89.7053 616.441 85.8607 614.894 81.7983C613.413 77.6729 612.68 75.3512 612.694 74.8331L612.737 73.2787C612.802 70.8825 614.853 69.3851 618.887 68.7866C626.765 67.5842 637.237 67.1684 650.301 67.5391L657.088 67.7317C676.717 68.2887 691.89 74.3257 702.608 85.8428C707.998 91.6346 712.009 98.8457 714.642 107.476C717.275 116.106 718.461 125.181 718.199 134.702L718.037 137.128C717.676 147.942 715.714 157.835 712.151 166.808C705.097 184.432 692.727 195.909 675.041 201.241C667.517 203.49 658.051 204.453 646.644 204.13L642.246 204.005C630.647 203.676 621.678 202.838 615.337 201.491C611.532 200.67 609.663 199.062 609.729 196.665C609.77 195.176 610.57 192.768 612.128 189.442C613.686 186.116 614.646 182.513 615.008 178.635C615.371 174.691 615.865 161.386 616.487 138.718L616.517 134.15L616.888 120.646L616.992 102.955L616.955 100.815Z" fill="black"/>
<path d="M504.683 60.3977C513.027 60.0348 517.344 63.2841 517.633 70.1455L517.54 72.4841L517.087 77.6593C516.958 80.6479 517.008 84.8609 517.237 90.2983L518.079 110.3C519.262 138.393 521.223 155.428 523.964 161.404C529.162 172.721 538.101 178.137 550.779 177.65C557.913 177.34 563.597 175.18 567.832 171.17C572.127 167.092 575.111 162.196 576.785 156.481C579.3 148.006 579.887 127.845 578.546 95.9979C578.055 84.3465 577.464 76.3634 576.772 72.0486C576.141 67.6663 575.799 64.8603 575.747 63.6304C575.554 59.0345 578.737 56.594 585.298 56.3087L588.165 56.1841C591.222 56.0511 593.591 56.9857 595.27 58.9878C598.159 62.4289 599.665 65.6059 599.787 68.5187L599.918 71.6258C599.978 73.0499 599.363 75.8651 598.072 80.0715C596.845 84.2752 596.186 88.3245 596.095 92.2194C596.065 96.0468 596.388 105.987 597.063 122.04C597.099 122.882 597.134 123.723 597.17 124.565C597.788 139.258 597.684 149.671 596.858 155.803C595.981 162.261 593.683 168.295 589.962 173.904C582.458 185.124 568.451 191.181 547.94 192.073C521.315 193.23 505.563 181.335 500.684 156.386C499.464 150.148 498.594 140.848 498.073 128.484C497.55 116.056 496.986 106.451 496.381 99.6679C495.838 92.8175 494.681 87.3233 492.911 83.185C491.206 79.0441 490.313 76.035 490.234 74.1578C490.052 69.8209 491.555 66.124 494.745 63.0671C496.402 61.5035 499.714 60.6137 504.683 60.3977Z" fill="black"/>
<path d="M491.699 70.5634C491.32 76.7063 489.285 79.66 485.594 79.4247C484.194 79.3354 481.588 78.6174 477.774 77.2706C473.961 75.9238 470.145 75.1286 466.327 74.8851C457.865 74.3454 452.67 77.26 450.744 83.6288C449.136 88.9793 447.509 104.975 445.864 131.616L444.403 150.608L443.804 160.308C443.569 164.123 443.614 167.014 443.939 168.983C444.329 170.955 444.915 173.362 445.697 176.203C446.544 179.048 446.917 181.279 446.817 182.896C446.617 186.129 445.096 188.531 442.252 190.103C439.471 191.678 435.663 192.312 430.828 192.003L428.441 191.851C424.942 191.628 421.878 190.556 419.25 188.636C416.625 186.651 415.389 184.43 415.541 181.972C415.693 179.515 416.216 177.244 417.111 175.159L417.995 173.268L418.974 171.383C419.63 170.061 420.428 168.002 421.367 165.206C422.37 162.414 423.107 157.202 423.578 149.572L423.842 146.862C424.017 145.056 424.161 143.247 424.272 141.437L424.805 135.92L426.445 114.018C427.579 95.6542 427.727 84.4654 426.889 80.4521C425.804 75.2545 421.985 72.4467 415.431 72.0287C411.614 71.7852 407.106 72.3741 401.907 73.7953C396.777 75.156 393.607 75.7977 392.398 75.7206C389.28 75.5218 387.925 72.1246 388.332 65.529C388.74 58.9335 391.739 55.3596 397.331 54.8074C405.17 54.0739 423.501 54.6263 452.325 56.4646L478.859 58.1568C483.758 58.4693 487.168 59.628 489.089 61.6331C491.073 63.6422 491.943 66.619 491.699 70.5634Z" fill="black"/>
<path d="M350.886 192.89C343.544 193.256 335.396 192.672 326.442 191.139C317.484 189.52 311.156 187.684 307.456 185.631C303.753 183.492 300.765 180.414 298.491 176.397C296.292 172.289 295.102 168.347 294.92 164.569C294.733 160.706 295.428 157.702 297.005 155.558C298.577 153.328 300.361 152.164 302.356 152.064C304.351 151.965 308.18 154.226 313.843 158.849C319.586 163.469 325.231 166.888 330.778 169.107C336.405 171.322 343.289 172.227 351.429 171.821C359.569 171.415 366.081 168.767 370.965 163.876C375.849 158.985 378.085 152.29 377.675 143.791C377.265 135.291 372.265 127.838 362.676 121.431C360.031 119.67 351.35 115.499 336.632 108.917C321.91 102.25 312.111 96.4563 307.233 91.5359C302.352 86.5297 298.745 81.4168 296.413 76.1974C294.157 70.8881 292.848 64.4988 292.488 57.0296C291.833 43.4648 296.597 31.9534 306.78 22.4954C315.883 13.8658 329.932 9.07755 348.926 8.13052C360.578 7.54957 370.443 8.90798 378.522 12.2057C382.196 13.7437 385.33 16.5135 387.923 20.5151C390.592 24.4269 392.011 28.1427 392.181 31.6627C392.579 39.9046 390.264 44.1509 385.236 44.4016C383.8 44.4732 378.749 41.756 370.083 36.25C361.417 30.7439 352.855 28.2017 344.395 28.6235C336.016 29.0413 329.336 31.5259 324.356 36.0772C319.451 40.5387 317.179 46.504 317.54 53.9733C317.9 61.4425 321.613 67.927 328.679 73.4268C332.503 76.4203 342.053 81.1938 357.33 87.7473C372.602 94.2148 383.094 100.275 388.807 105.929C394.595 111.492 398.498 116.934 400.515 122.256C402.607 127.487 403.824 133.623 404.164 140.663C404.503 147.703 403.426 154.383 400.931 160.704C395.954 173.603 386.439 182.812 372.386 188.332C365.714 190.988 358.827 192.494 351.724 192.848C351.405 192.864 351.125 192.878 350.886 192.89Z" fill="black"/>
<path d="M263.368 97.3949L263.172 96.4437C262.949 95.3657 263.564 92.8187 265.016 88.8026C266.531 84.7732 267.007 81.3952 266.445 78.6684C266.301 77.9709 264.814 75.9706 261.983 72.6676C259.202 69.288 257.478 65.9811 256.811 62.747C255.439 56.0887 258.153 52.0355 264.955 50.5875L267.576 50.0296C270.821 49.3388 273.488 49.797 275.578 51.4041C277.655 52.9478 279.014 55.2733 279.654 58.3805L280.116 59.6723L280.959 63.7625C282.306 70.294 281.616 77.6894 278.889 85.9486C276.162 94.2078 272.583 98.809 268.153 99.7522L267.591 99.8718C265.22 100.377 263.812 99.551 263.368 97.3949Z" fill="black"/>
<path d="M189.788 134.278C185.425 128.309 184.035 121.521 185.617 113.914C187.212 106.244 191.722 100.69 199.149 97.2519C206.589 93.7507 215.268 93.065 225.186 95.1949C235.104 97.3248 242.083 100.115 246.122 103.565C250.175 106.951 251.792 110.61 250.975 114.54C249.855 119.928 247.579 122.254 244.148 121.517C242.963 121.263 240.083 119.287 235.509 115.589C230.934 111.892 226.246 109.527 221.442 108.496C216.639 107.464 212.791 107.797 209.897 109.493C207.065 111.203 205.287 113.801 204.562 117.287C203.837 120.773 205.499 124.375 209.548 128.092C210.91 129.378 215.501 132.682 223.322 138.003C231.218 143.275 236.59 147.839 239.437 151.695C243.849 157.741 245.244 164.663 243.623 172.46C242.001 180.257 237.425 186.128 229.892 190.073C222.436 193.968 213.655 194.83 203.55 192.66C186.396 188.976 176.466 183.301 173.76 175.634C172.898 173.198 172.638 171.155 172.981 169.507C174.128 163.992 176.385 161.597 179.754 162.32C180.752 162.534 184.045 165.03 189.633 169.806C195.297 174.532 200.593 177.424 205.521 178.482C210.511 179.554 214.665 179.32 217.982 177.781C221.3 176.242 223.341 173.634 224.105 169.957C224.883 166.217 223.318 162.305 219.411 158.221C217.803 156.552 213.144 153.101 205.435 147.87C197.739 142.575 192.524 138.045 189.788 134.278Z" fill="black"/>
<path d="M102.126 106.212C103.069 108.96 103.898 119.008 104.612 136.357C105.327 153.705 106.396 164.165 107.819 167.736C110.809 175.26 115.744 178.876 122.623 178.584C131.031 178.226 136.979 174.666 140.465 167.903C143.949 161.076 145.363 149.7 144.707 133.776L144.682 128.525L144.47 123.378C144.326 119.883 143.925 116.333 143.266 112.73C142.671 109.124 142.365 107.127 142.349 106.738C142.224 103.696 143.187 101.515 145.238 100.196C147.287 98.8115 150.35 98.0328 154.426 97.8594C158.503 97.686 161.179 99.1285 162.453 102.187C163.303 104.226 164.109 114.502 164.872 133.016C165.631 151.464 167.169 164.79 169.485 172.992C170.524 176.514 171.045 178.34 171.051 178.469L171.127 180.314C171.196 181.997 170.273 183.593 168.357 185.101C166.504 186.606 163.795 187.435 160.228 187.587C156.66 187.738 153.189 187.108 149.812 185.695C146.433 184.218 144.362 183.495 143.597 183.528C142.897 183.558 139.6 184.865 133.709 187.45C127.817 190.035 122.546 191.427 117.896 191.624L115.412 191.73C110.316 191.947 105.65 190.978 101.413 188.824C97.174 186.605 93.8172 183.343 91.3428 179.039C87.6975 172.644 85.4376 158.831 84.5631 137.599C84.0539 125.235 83.3253 117.614 82.3772 114.736C82.3028 114.48 81.8408 113.332 80.9911 111.293C80.1414 109.254 79.6992 107.814 79.6646 106.973L79.5766 104.836C79.4299 101.276 82.669 99.3551 89.2937 99.0733L91.5869 98.9758C96.8739 98.7509 100.387 101.163 102.126 106.212Z" fill="black"/>
<path d="M34.4936 204.292L32.2386 204.498C26.1572 205.053 20.7142 204.258 15.9096 202.114C11.1115 200.043 8.54749 197.141 8.21758 193.407L8.03322 191.321C7.83269 189.052 8.56756 186.844 10.2378 184.7C11.97 182.475 14.7151 181.192 18.4733 180.849L28.2784 180.729C32.3099 180.361 35.7974 178.124 38.7409 174.018C41.678 169.839 43.8476 164.77 45.2498 158.813C47.8457 147.654 48.115 130.435 46.058 107.156L45.7226 104.53C45.499 102.78 45.067 98.2806 44.4266 91.0334C43.7797 83.7129 42.5581 77.2936 40.7617 71.7753C38.9589 66.1838 36.7018 61.298 33.9904 57.1177C31.279 52.9375 29.8069 49.5296 29.574 46.8943C29.3411 44.2589 30.9319 41.6047 34.3465 38.9317C37.8293 36.2524 42.9873 34.601 49.8204 33.9774L52.0753 33.7717C56.1068 33.4038 59.7294 34.2539 62.943 36.3221C66.2184 38.3108 68.0243 41.2085 68.3607 45.0151C68.4836 46.406 68.3766 48.7034 68.0398 51.9073C67.7713 55.105 67.6332 60.9474 67.6255 69.4345C67.6796 77.8421 68.0333 85.7428 68.6867 93.1364L68.9474 98.4259C69.0344 100.189 69.1554 101.949 69.3107 103.706L69.5715 108.995L70.6806 125.055C72.9512 150.75 71.264 169.463 65.6192 181.195C62.4727 187.681 58.0855 192.989 52.4577 197.118C46.8364 201.321 40.8483 203.712 34.4936 204.292Z" fill="black"/>
</mask>
<g mask="url(#mask0_499_266)">
<path d="M41.8793 178.046C32.1885 185.432 4.46789 213.188 -28.8887 265.123V291.168L866.23 297V112.35C847.231 131.009 815.736 176.102 795.845 157.054C780.719 142.57 744.968 188.542 735.788 178.046C727.34 168.388 655.839 167.161 649.719 155.111C643.598 143.06 567.475 172.215 546.818 189.319C526.161 206.424 415.228 170.271 409.49 160.942C403.752 151.612 375.827 136.451 292.053 178.046C208.28 219.641 210.575 189.319 172.322 160.942C123.294 124.57 117.62 158.609 100.789 157.054C87.3238 155.81 52.9726 167.421 41.8793 178.046Z" fill="#FFE6A7"/>
<path d="M35.7591 147.725C26.0684 155.111 -1.65223 182.866 -35.0088 234.802V260.847L860.11 266.678V82.0281C841.111 100.687 809.616 145.781 789.725 126.733C774.598 112.248 738.848 158.22 729.667 147.725C721.22 138.066 649.719 136.84 643.598 124.789C637.478 112.738 561.355 141.894 540.698 158.998C520.041 176.102 409.108 139.95 403.37 130.62C397.632 121.29 369.707 106.13 285.933 147.725C202.159 189.319 204.455 158.998 166.202 130.62C117.174 94.2489 111.5 128.288 94.6687 126.733C81.2036 125.489 46.8525 137.099 35.7591 147.725Z" fill="#FFE6A7" fill-opacity="0.5"/>
<path d="M30.4037 115.071C20.7129 122.457 -7.00769 150.212 -40.3643 202.148V228.193L854.755 234.024V49.3741C835.756 68.0335 804.261 113.127 784.369 94.0789C769.243 79.5941 733.493 125.567 724.312 115.071C715.864 105.412 644.363 104.186 638.243 92.1352C632.122 80.0843 555.999 109.24 535.343 126.344C514.686 143.448 403.752 107.296 398.014 97.9662C392.276 88.6365 364.352 73.4758 280.578 115.071C196.804 156.665 199.099 126.344 160.846 97.9662C111.818 61.595 106.145 95.6338 89.3132 94.0789C75.8482 92.8349 41.497 104.445 30.4037 115.071Z" fill="#FFE6A7" fill-opacity="0.39"/>
<path d="M30.4037 88.9843C20.7129 96.759 -7.00769 125.976 -40.3643 180.644V208.06L854.755 214.198V19.8301C835.756 39.4715 804.261 86.9383 784.369 66.8877C769.243 51.6405 733.493 100.033 724.312 88.9843C715.864 78.8178 644.363 77.5268 638.243 64.8417C632.122 52.1566 555.999 82.8463 535.343 100.851C514.686 118.856 403.752 80.8004 398.014 70.9796C392.276 61.1589 364.352 45.2003 280.578 88.9843C196.804 132.768 199.099 100.851 160.846 70.9796C111.818 32.6941 106.145 68.5245 89.3132 66.8877C75.8482 65.5782 41.497 77.7996 30.4037 88.9843Z" fill="#FFE6A7" fill-opacity="0.25"/>
<path d="M32.6986 71.0959C23.0079 80.7055 -4.71277 116.817 -38.0693 184.388V218.274L857.049 225.861V-14.3787C838.051 9.89815 806.556 68.5671 786.664 43.7845C771.538 24.9391 748.794 71.5796 731.962 68.0335C717.299 64.9441 646.658 56.9345 640.538 41.2557C634.417 25.5769 558.294 63.5094 537.637 85.7632C516.981 108.017 414.845 61.425 403.37 52.0953C393.766 44.2874 408.342 2.77731 313.858 46.653C223.57 88.5795 227.789 43.7845 165.436 43.7845H91.6081C78.0492 43.7845 43.792 57.2717 32.6986 71.0959Z" fill="#FFE6A7" fill-opacity="0.32"/>
</g>
</svg>
